<svg width="60" height="60" viewBox="0 0 60 60" fill="none" xmlns="http://www.w3.org/2000/svg">
<path d="M45.7528 24.6H42.8438V16.5C42.8438 16.5 42.8438 3 29.25 3C15.6562 3 15.6562 16.5 15.6562 16.5V24.6H12.7472C11.3555 24.6 10.0209 25.149 9.03687 26.1263C8.05283 27.1035 7.5 28.429 7.5 29.811V51.816C7.50719 53.1934 8.06318 54.5119 9.04645 55.4833C10.0297 56.4547 11.3602 57 12.7472 57H45.7528C47.1445 57 48.4791 56.451 49.4631 55.4737C50.4472 54.4965 51 53.171 51 51.789V29.811C51 28.429 50.4472 27.1035 49.4631 26.1263C48.4791 25.149 47.1445 24.6 45.7528 24.6ZM21.0938 17.85C21.0938 13.8 21.0938 8.4 29.25 8.4C37.4062 8.4 37.4062 13.8 37.4062 17.85V24.6H21.0938V17.85ZM29.25 46.2C28.1746 46.2 27.1233 45.8833 26.2291 45.2899C25.3349 44.6966 24.638 43.8532 24.2264 42.8665C23.8149 41.8798 23.7072 40.794 23.917 39.7465C24.1268 38.699 24.6447 37.7368 25.4051 36.9816C26.1656 36.2264 27.1344 35.7121 28.1892 35.5038C29.244 35.2954 30.3373 35.4023 31.3308 35.8111C32.3244 36.2198 33.1736 36.9119 33.7711 37.7999C34.3686 38.6879 34.6875 39.732 34.6875 40.8C34.6875 42.2322 34.1146 43.6057 33.0949 44.6184C32.0752 45.6311 30.6921 46.2 29.25 46.2Z" fill="white"/>
</svg>
