<svg width="54" height="54" viewBox="0 0 54 54" fill="none" xmlns="http://www.w3.org/2000/svg">
<path d="M27 0C41.9121 0 54 12.0879 54 27C54 41.9121 41.9121 54 27 54C12.0879 54 0 41.9121 0 27C0 12.0879 12.0879 0 27 0ZM27 3.7665C20.8381 3.7665 14.9286 6.21431 10.5714 10.5714C6.21431 14.9286 3.7665 20.8381 3.7665 27C3.7665 33.1619 6.21431 39.0714 10.5714 43.4286C14.9286 47.7857 20.8381 50.2335 27 50.2335C33.1619 50.2335 39.0714 47.7857 43.4286 43.4286C47.7857 39.0714 50.2335 33.1619 50.2335 27C50.2335 20.8381 47.7857 14.9286 43.4286 10.5714C39.0714 6.21431 33.1619 3.7665 27 3.7665ZM32.5296 9.4176C34.285 10.0813 35.9264 11.0141 37.395 12.1824C37.7325 12.4416 38.0565 12.717 38.3751 13.0113C38.4345 13.0626 38.4858 13.1166 38.5425 13.1733C39.4281 13.9914 40.2327 14.9121 40.9455 15.9003C41.0454 16.038 41.1507 16.1649 41.2425 16.2972C41.4153 16.551 41.5773 16.8156 41.7393 17.0802C42.0179 17.5265 42.2747 17.986 42.5088 18.4572C42.6519 18.7272 42.7788 19.0215 42.9111 19.3077C43.0002 19.5048 43.1001 19.7073 43.1811 19.9179C43.3782 20.4093 43.5537 20.9034 43.713 21.4083C43.7643 21.5757 43.8048 21.7539 43.8534 21.9213C44.1273 22.882 44.3215 23.8636 44.4339 24.8562C44.4528 25.0344 44.4798 25.2234 44.4933 25.3989C44.5473 25.9794 44.5824 26.5653 44.5824 27.1539C44.5789 28.304 44.4732 29.4515 44.2665 30.5829C44.2287 30.78 44.1963 30.9798 44.1585 31.1688C44.0505 31.6818 43.9263 32.184 43.7805 32.6808C42.4062 32.0517 40.7916 31.1256 40.3704 30.1077C39.6036 28.2717 37.5624 27.3537 36.7308 24.9885C35.3619 21.0735 37.179 21.1761 37.4328 18.7461C37.5516 17.6067 36.7308 17.3691 35.6481 17.8335C33.1209 18.8946 32.265 18.4869 31.7547 16.5834C31.2444 14.6853 31.7547 14.1561 31.7547 14.1561C30.0321 14.3451 29.9673 12.2472 30.861 11.718C31.482 11.3616 32.0085 10.2681 32.5296 9.4176ZM25.3098 21.0519C26.9028 20.3229 28.3743 20.061 28.1799 18.8082C27.9909 17.5689 27.5427 16.6455 25.0533 16.6455C22.5639 16.6455 23.6493 20.061 21.6081 18.0225C19.5669 15.9975 22.0536 16.5213 23.0742 16.0596C24.0975 15.5952 25.1181 13.6917 23.3307 13.5567C21.546 13.4298 21.9267 14.3451 20.5227 13.8267C19.1187 13.2975 18.4815 15.66 17.5851 15.3306C16.9965 15.1092 15.417 13.8942 14.3694 12.6981C12.2317 14.5574 10.5394 16.8735 9.4176 19.4751C9.7227 23.004 11.5884 24.8562 11.5884 24.8562C11.5884 24.8562 12.5469 27.1539 18.2925 29.9781C18.2925 29.9781 19.3725 30.0429 18.0981 28.7334C16.8237 27.4185 15.417 25.7769 17.0127 24.9264C18.6057 24.0651 19.0566 24.138 19.44 25.7175C19.8207 27.2943 21.1005 26.3655 21.2247 24.8562C21.3543 23.3523 23.7141 21.7782 25.3098 21.0492V21.0519ZM24.0948 28.9899C26.8434 28.9899 26.5869 29.8458 28.7577 31.7574C30.9258 33.6582 29.7783 35.5617 28.6902 37.0089C27.6075 38.4507 26.649 40.0869 26.1387 43.0515C25.6257 46.0053 24.2865 43.8993 23.8437 43.1784C23.3955 42.4521 22.6935 41.7987 22.8879 38.7774C23.0769 35.7588 21.033 37.5354 20.3337 33.5934C19.6317 29.6568 21.3543 28.9926 24.0975 28.9926L24.0948 28.9899ZM37.5327 31.5927C38.2644 31.1256 40.0167 32.3433 39.6387 33.6258C39.2526 34.9083 38.043 34.1847 37.4355 33.6258C36.828 33.0696 36.7956 32.0517 37.5327 31.5927Z" fill="white"/>
</svg>
